<svg width="25" height="25" viewBox="0 0 24 25" fill="none" xmlns="http://www.w3.org/2000/svg">
<path fill-rule="evenodd" clip-rule="evenodd" d="M2.78906 22.69H5.78906V10.69H2.78906V22.69Z" fill="#0864EE"/>
<path fill-rule="evenodd" clip-rule="evenodd" d="M7.78906 22.69H10.7891V10.69H7.78906V22.69Z" fill="#0864EE"/>
<path fill-rule="evenodd" clip-rule="evenodd" d="M12.7891 22.69H15.7891V10.69H12.7891V22.69Z" fill="#0864EE"/>
<path fill-rule="evenodd" clip-rule="evenodd" d="M17.7891 22.69H20.7891V10.69H17.7891V22.69Z" fill="#0864EE"/>
<path fill-rule="evenodd" clip-rule="evenodd" d="M0.789062 24.69H22.7891V21.69H0.789062V24.69Z" fill="#5697FA"/>
<path fill-rule="evenodd" clip-rule="evenodd" d="M12.435 0.236615L23.3302 9.45568C23.6253 9.7054 23.6621 10.1471 23.4124 10.4422C23.2794 10.5994 23.0839 10.69 22.878 10.69H0.7C0.313401 10.69 0 10.3766 0 9.99005C0 9.78414 0.0906548 9.58868 0.24784 9.45568L11.1431 0.236615C11.5159 -0.0788715 12.0621 -0.0788715 12.435 0.236615Z" fill="#5697FA"/>
<path fill-rule="evenodd" clip-rule="evenodd" d="M6.99872 7.69006H16.6088L11.7891 3.62634" fill="#0864EE"/>
</svg>
